<svg id="b46c3b80-8b5c-43aa-a68a-4b7a0efd2c0d" data-name="Capa 1" xmlns="http://www.w3.org/2000/svg" viewBox="0 0 365.3 127.4"><defs><style>.a4b0cc68-19fe-439e-9bf0-097386d2e0b1{fill:#004593;}.ae049ce5-e062-486a-90f3-179e8b68d9f6,.b60d2622-3787-45c1-8215-53144234a629{fill:#0087ca;}.ae049ce5-e062-486a-90f3-179e8b68d9f6{fill-rule:evenodd;}</style></defs><title>log1</title><path class="a4b0cc68-19fe-439e-9bf0-097386d2e0b1" d="M487.73,245.13a13,13,0,0,1,6,11.22V270.7c0,1.68-1.47,2.52-4.44,2.52s-4.39-.81-4.55-2.47V256.69a8,8,0,0,0-1.44-3.88c-1.61-2.64-4.51-4-8.68-4l-.41.17a2.11,2.11,0,0,0-.36-.17H460.05v21.85c0,1.82-1.56,2.72-4.69,2.72s-4.48-.9-4.48-2.72V213.41h20.41a57.68,57.68,0,0,1,9,.56q9,1.51,12.48,8.61a17.62,17.62,0,0,1,1.84,8.08q0,10-6.92,14.47M479,222.06a30.35,30.35,0,0,0-7-.52H460.05v19.12h12q13.17,0,13.17-9.77a9.62,9.62,0,0,0-1.6-5.51A7.66,7.66,0,0,0,479,222.06Z" transform="translate(-129.35 -190.12)"/><path class="a4b0cc68-19fe-439e-9bf0-097386d2e0b1" d="M417.4,224.92l-7.16,17.58h14.62Zm23.28,48.14c-2.61,0-4.3-.67-5.08-2l-8-21H407.24l-7.61,20.73c-.47,1.36-2.24,2-5.28,2-1.53,0-5.05-.62-4.28-2.49l21.2-54.17c.91-1.82,3.21-2.72,6-2.72,3,0,5.61.9,6.38,2.72l22.06,54.34C446.87,272.62,441.77,273.06,440.68,273.06Z" transform="translate(-129.35 -190.12)"/><path class="a4b0cc68-19fe-439e-9bf0-097386d2e0b1" d="M383.63,267a10.39,10.39,0,0,1-5.26,4.37,22,22,0,0,1-8.87,1.52c-7.18,0-12.06-1.32-15-4.45A3.91,3.91,0,0,1,354,264c.9-1.59,2.36-2.69,4-2.23a30.17,30.17,0,0,0,12.85,2.58c5.89-.28,5.95-6.28,5.92-11.08l0-37.1c0-1.79,1.41-2.67,4.27-2.67,3.13,0,4.68.88,4.68,2.67V256c0,4.79-.72,8.48-2.15,11" transform="translate(-129.35 -190.12)"/><path class="a4b0cc68-19fe-439e-9bf0-097386d2e0b1" d="M348.48,259.81Q344,273.07,326.4,273.06q-16.83,0-21.6-11.24-2.28-5.4-2.28-14.6V216.9c.13-2.57,1.55-3.76,4.66-3.76,2.82,0,4.5,1.2,4.5,3.67v30.36a36.91,36.91,0,0,0,.81,9.08q2.38,8.6,13.23,8.6c6,0,10.17-1.47,12.36-4.44q2.81-3.77,2.8-13.24V216.81c0-2.44,1.92-3.48,4.42-3.48,2.91,0,4.74,1.16,4.74,3.48v30.4c0,5.34-.52,9.55-1.56,12.6" transform="translate(-129.35 -190.12)"/><path class="a4b0cc68-19fe-439e-9bf0-097386d2e0b1" d="M272.74,248.78H261.21v20.69c0,2.06-2,3.23-4.62,3.23-2.88,0-4.45-1-4.54-3.31v-56h20a57.41,57.41,0,0,1,9,.56c6,1,10.14,3.87,12.49,8.57a17.85,17.85,0,0,1,1.84,8.12q0,18.14-22.68,18.12m7-26.76a33,33,0,0,0-7-.48H261.21v19.12h11.65q13.17,0,13.17-9.77a9.91,9.91,0,0,0-1.64-5.61A7.81,7.81,0,0,0,279.74,222Z" transform="translate(-129.35 -190.12)"/><path class="a4b0cc68-19fe-439e-9bf0-097386d2e0b1" d="M236.76,273.1q-4.35,0-4.35-3.28V229.89l-15.88,31.37a4.92,4.92,0,0,1-4.13,2.45,4.82,4.82,0,0,1-4.08-2.45l-15.53-32.09v40.65c0,2.07-1.5,3.09-4.52,3.09s-4.35-1-4.35-3.09V216.45c0-2.11,1.5-3.16,4.52-3.16a10.1,10.1,0,0,1,9.26,5L213,249.76,228.09,219a9.09,9.09,0,0,1,8.76-5.47q4.44,0,4.44,2.92v53.36q0,3.29-4.53,3.28" transform="translate(-129.35 -190.12)"/><path class="a4b0cc68-19fe-439e-9bf0-097386d2e0b1" d="M170.7,272.06H129.45V213.41h41.09c2.1,0,3.16,1.4,3.16,4.17s-1.06,4-3.16,4H138.61v16.15h23.33c2.46,0,3.67,1.42,3.67,4.25,0,2.58-1.21,3.88-3.67,3.88H138.61v18.12H170.7c2.64,0,3.7,1.91,3.7,4.46a3.38,3.38,0,0,1-3.7,3.66" transform="translate(-129.35 -190.12)"/><path class="ae049ce5-e062-486a-90f3-179e8b68d9f6" d="M189.24,190.12a7.87,7.87,0,1,1-7.88,7.87,7.87,7.87,0,0,1,7.88-7.87" transform="translate(-129.35 -190.12)"/><path class="ae049ce5-e062-486a-90f3-179e8b68d9f6" d="M236.36,190.12a7.87,7.87,0,1,1-7.87,7.87,7.87,7.87,0,0,1,7.87-7.87" transform="translate(-129.35 -190.12)"/><path class="b60d2622-3787-45c1-8215-53144234a629" d="M493.86,308a3.75,3.75,0,0,1-1.28,3,4,4,0,0,1-2.73,1q-3.57,0-4.35-3.74l1.8-.4a2.27,2.27,0,0,0,2.55,2,2.57,2.57,0,0,0,1.43-.39A1.61,1.61,0,0,0,492,308c0-.83-.53-1.44-1.6-1.82s-2-.7-3-1a3.12,3.12,0,0,1-1.6-2.9,3.39,3.39,0,0,1,1.17-2.75,3.86,3.86,0,0,1,2.51-.81,3.93,3.93,0,0,1,3.9,2.69l-1.62,1a2.31,2.31,0,0,0-2.28-1.48c-1.24,0-1.86.45-1.86,1.37,0,.56.54,1,1.6,1.35a14.82,14.82,0,0,1,3,1.13,3.63,3.63,0,0,1,1.6,3.27m-12-2.64a7.71,7.71,0,0,0-.5-3.19,2.53,2.53,0,0,0-4.44,0,10.56,10.56,0,0,0,0,6.36,2.59,2.59,0,0,0,4.44,0A7.67,7.67,0,0,0,481.87,305.33Zm1.79,0q0,6.6-4.5,6.6t-4.52-6.57q0-6.65,4.52-6.65T483.66,305.3Zm-11.29,6.42h-1.78v-7.37a4.91,4.91,0,0,0-.52-2.61,2.24,2.24,0,0,0-2-.87,2,2,0,0,0-1.7.87,3.47,3.47,0,0,0-.66,2.14v7.84h-1.8V298.87h1.8v.92a3.19,3.19,0,0,1,2.36-1.13q4.31,0,4.31,5.56Zm-11.61,0H459V298.87h1.8Zm.22-17.28a1.42,1.42,0,0,1-.33.94,1,1,0,0,1-.78.4,1,1,0,0,1-.78-.4,1.47,1.47,0,0,1-.32-.94,1.52,1.52,0,0,1,.32-1,1,1,0,0,1,.78-.39,1,1,0,0,1,.78.39A1.47,1.47,0,0,1,461,294.44Zm-4.59,6.38h-1.56v7.62c0,.71.28,1.06.84,1.06h.48v2.22h-.5c-1.71,0-2.57-1.09-2.57-3.28v-7.62h-1.37v-2h1.37V295.2h1.75v3.64h1.56Zm-6.63,10.9H448v-7.37a4.91,4.91,0,0,0-.52-2.61,2.24,2.24,0,0,0-2-.87,2,2,0,0,0-1.7.87,3.47,3.47,0,0,0-.66,2.14v7.84h-1.8V298.87h1.8v.92a3.21,3.21,0,0,1,2.36-1.13q4.31,0,4.3,5.56ZM437,304c-.08-2.1-.86-3.16-2.33-3.16-1.62,0-2.52,1.06-2.71,3.16Zm1.82.82,0,1.32h-6.9q.12,3.67,3,3.67a3,3,0,0,0,2.6-1.53l1.26,1.5a4.41,4.41,0,0,1-3.86,2.17q-4.75,0-4.76-6.57a9.1,9.1,0,0,1,1-4.7,3.84,3.84,0,0,1,3.53-2,3.52,3.52,0,0,1,3.2,1.79A8.38,8.38,0,0,1,438.81,304.8Zm-13.22-1.61c0-1.63-.7-2.45-2.1-2.45s-2.15.82-2.15,2.45.72,2.56,2.17,2.56S425.59,304.9,425.59,303.19Zm2.77,8.71a4.42,4.42,0,0,1-1.63,3.54,5,5,0,0,1-3.31,1.21,5.36,5.36,0,0,1-2.9-.74,3.12,3.12,0,0,1-1.47-2.85,5.61,5.61,0,0,1,.19-1.37l1.67.71a1.84,1.84,0,0,0-.09.53c0,1.16.87,1.74,2.6,1.74a3.57,3.57,0,0,0,2.06-.68,2.45,2.45,0,0,0,1.12-2,1.06,1.06,0,0,0-.35-.83,1.22,1.22,0,0,0-.79-.3,6.73,6.73,0,0,0-1.72.33,6.86,6.86,0,0,1-1.73.33,2.15,2.15,0,0,1-1.51-.56,2.1,2.1,0,0,1-.67-1.66,3.39,3.39,0,0,1,1.08-2.43,4.49,4.49,0,0,1-1.34-3.64,4.89,4.89,0,0,1,1.07-3.34,4,4,0,0,1,5.47-.24c.24-.15.35-.58.32-1.32h1.75c0,1.49-.33,2.49-1,3a7,7,0,0,1,.24,1.92c0,3-1.3,4.46-3.89,4.46a4.71,4.71,0,0,1-1-.1,2.24,2.24,0,0,0-1,1.69c0,.26.13.39.41.39a6.24,6.24,0,0,0,1.76-.37,6.29,6.29,0,0,1,1.77-.37,2.82,2.82,0,0,1,2,.77A2.93,2.93,0,0,1,428.36,311.9Zm-10.93-12.45-.76,1.87a2.38,2.38,0,0,0-1.37-.47,2.27,2.27,0,0,0-1.6.6,2.31,2.31,0,0,0-.71,1.77v8.5h-1.75V298.87H413v.66a3.13,3.13,0,0,1,2.31-.9A2.76,2.76,0,0,1,417.43,299.45Zm-10.83,9.31V306a2.08,2.08,0,0,1-.73.13h-1.93a1.73,1.73,0,0,0-1.26.54,1.85,1.85,0,0,0-.54,1.36,1.72,1.72,0,0,0,.56,1.33,1.76,1.76,0,0,0,1.26.52A3.45,3.45,0,0,0,406.6,308.76Zm2.14,2.64L407,312l-.24-.95a4.69,4.69,0,0,1-2.84.9,3.39,3.39,0,0,1-2.49-1.08,4.32,4.32,0,0,1,0-5.78,3.38,3.38,0,0,1,2.51-1.06h1.78a1.17,1.17,0,0,0,.86-.29v-1.18a1.59,1.59,0,0,0-.59-1.32,2.15,2.15,0,0,0-1.38-.48,2.26,2.26,0,0,0-2.31,2l-1.65-.77c.56-2.25,1.9-3.37,4-3.37a3.5,3.5,0,0,1,2.54,1,3.77,3.77,0,0,1,1.19,2.9V310ZM392.45,308a3.75,3.75,0,0,1-1.28,3,4,4,0,0,1-2.73,1q-3.57,0-4.35-3.74l1.8-.4a2.27,2.27,0,0,0,2.55,2,2.57,2.57,0,0,0,1.43-.39,1.63,1.63,0,0,0,.76-1.43c0-.83-.54-1.44-1.61-1.82s-2-.7-3-1a3.11,3.11,0,0,1-1.6-2.9,3.39,3.39,0,0,1,1.17-2.75,3.84,3.84,0,0,1,2.51-.81,3.93,3.93,0,0,1,3.9,2.69l-1.63,1a2.29,2.29,0,0,0-2.27-1.48c-1.24,0-1.86.45-1.86,1.37,0,.56.53,1,1.6,1.35a14.63,14.63,0,0,1,3,1.13A3.63,3.63,0,0,1,392.45,308Zm-12-4c-.08-2.1-.86-3.16-2.34-3.16s-2.51,1.06-2.7,3.16Zm1.82.82,0,1.32h-6.91q.14,3.67,3,3.67a3,3,0,0,0,2.6-1.53l1.25,1.5a4.39,4.39,0,0,1-3.85,2.17c-3.18,0-4.76-2.19-4.76-6.57a9,9,0,0,1,1-4.7,3.84,3.84,0,0,1,3.52-2,3.53,3.53,0,0,1,3.21,1.79A8.38,8.38,0,0,1,382.25,304.8Zm-11,6.92h-1.77v-7.37a5,5,0,0,0-.52-2.61,2.24,2.24,0,0,0-2-.87,2,2,0,0,0-1.7.87,3.47,3.47,0,0,0-.66,2.14v7.84h-1.8V298.87h1.8v.92a3.19,3.19,0,0,1,2.36-1.13q4.31,0,4.3,5.56ZM358.48,304c-.09-2.1-.86-3.16-2.34-3.16s-2.52,1.06-2.7,3.16Zm1.82.82,0,1.32h-6.91q.13,3.67,3,3.67a3,3,0,0,0,2.6-1.53l1.25,1.5a4.39,4.39,0,0,1-3.85,2.17c-3.18,0-4.76-2.19-4.76-6.57a9,9,0,0,1,1-4.7,3.84,3.84,0,0,1,3.52-2,3.52,3.52,0,0,1,3.21,1.79A8.38,8.38,0,0,1,360.3,304.8Zm-9.7-5.93-4,12.85h-1.67l-4-12.85h2l2.86,9.23,2.85-9.23Zm-12.75,6.46a7.55,7.55,0,0,0-.5-3.19,2.52,2.52,0,0,0-4.43,0,10.36,10.36,0,0,0,0,6.36,2.58,2.58,0,0,0,4.43,0A7.51,7.51,0,0,0,337.85,305.33Zm1.8,0q0,6.6-4.51,6.6t-4.52-6.57q0-6.65,4.52-6.65T339.65,305.3Zm-2-11.82-2.27,3.86h-1.58l1.81-3.86Zm-9.74,18.58q0,5.46-4.23,5.46v-2.14a2.21,2.21,0,0,0,2-.81,5,5,0,0,0,.45-2.51V298.87h1.8Zm.19-17.62a1.41,1.41,0,0,1-.32.94,1,1,0,0,1-1.56,0,1.41,1.41,0,0,1-.32-.94,1.46,1.46,0,0,1,.32-1,1,1,0,0,1,1.56,0A1.46,1.46,0,0,1,328.13,294.44Zm-10.26,5-.75,1.87a2.41,2.41,0,0,0-1.37-.47,2.24,2.24,0,0,0-2.31,2.37v8.5h-1.76V298.87h1.76v.66a3.13,3.13,0,0,1,2.31-.9A2.72,2.72,0,0,1,317.87,299.45Zm-10.47,5.88a7.71,7.71,0,0,0-.5-3.19,2.53,2.53,0,0,0-4.44,0,10.36,10.36,0,0,0,0,6.36,2.59,2.59,0,0,0,4.44,0A7.67,7.67,0,0,0,307.4,305.33Zm1.79,0q0,6.6-4.5,6.6c-3,0-4.52-2.19-4.52-6.57s1.5-6.65,4.52-6.65S309.19,300.89,309.19,305.3Zm-12.75.08a8.3,8.3,0,0,0-.43-3.08,2.1,2.1,0,0,0-2.1-1.4,2.22,2.22,0,0,0-1.68.74,2.74,2.74,0,0,0-.68,1.93v3.63a2.67,2.67,0,0,0,.68,1.91,2.27,2.27,0,0,0,1.68.71,2.11,2.11,0,0,0,2.1-1.38A8.11,8.11,0,0,0,296.44,305.38Zm1.78,0c0,4.4-1.44,6.59-4.31,6.59a3.47,3.47,0,0,1-2.36-.73v6.25h-1.8V298.87h1.8v.74a3.27,3.27,0,0,1,2.36-.95Q298.21,298.66,298.22,305.41ZM281.31,308a3.74,3.74,0,0,1-1.27,3,4,4,0,0,1-2.73,1q-3.57,0-4.35-3.74l1.79-.4a2.27,2.27,0,0,0,2.56,2,2.6,2.6,0,0,0,1.43-.39,1.63,1.63,0,0,0,.76-1.43c0-.83-.54-1.44-1.61-1.82s-2-.7-3-1a3.11,3.11,0,0,1-1.61-2.9,3.39,3.39,0,0,1,1.17-2.75,3.88,3.88,0,0,1,2.51-.81,3.92,3.92,0,0,1,3.9,2.69l-1.62,1a2.3,2.3,0,0,0-2.28-1.48c-1.24,0-1.86.45-1.86,1.37,0,.56.54,1,1.61,1.35a14.63,14.63,0,0,1,3,1.13A3.63,3.63,0,0,1,281.31,308Zm-12.34.79V306a2.08,2.08,0,0,1-.73.13h-1.93a1.71,1.71,0,0,0-1.25.54,1.86,1.86,0,0,0-.55,1.36,1.72,1.72,0,0,0,.56,1.33,1.76,1.76,0,0,0,1.26.52A3.45,3.45,0,0,0,269,308.76Zm2.15,2.64-1.71.63-.24-.95a4.69,4.69,0,0,1-2.84.9,3.39,3.39,0,0,1-2.49-1.08,4.32,4.32,0,0,1,0-5.78,3.38,3.38,0,0,1,2.51-1.06h1.78a1.17,1.17,0,0,0,.86-.29v-1.18a1.57,1.57,0,0,0-.59-1.32,2.15,2.15,0,0,0-1.38-.48,2.26,2.26,0,0,0-2.31,2L263,302c.57-2.25,1.9-3.37,4-3.37a3.5,3.5,0,0,1,2.53,1,3.77,3.77,0,0,1,1.19,2.9V310Zm-12.82-4.22V303.3a2.46,2.46,0,0,0-.69-1.77,2.26,2.26,0,0,0-1.67-.71,2.1,2.1,0,0,0-2.08,1.35,11.15,11.15,0,0,0,0,6.27,2.1,2.1,0,0,0,2.08,1.35,2.28,2.28,0,0,0,1.69-.67A2.63,2.63,0,0,0,258.3,307.18Zm2.15,4.22-1.71.63-.24-1a3.76,3.76,0,0,1-2.56.92c-2.88,0-4.33-2.21-4.33-6.65s1.45-6.67,4.33-6.67a3.36,3.36,0,0,1,2.36.82V293.3h1.8V310Zm-11.43.32h-1.8V298.87H249Zm.21-17.28a1.47,1.47,0,0,1-.32.94,1,1,0,0,1-.78.4,1,1,0,0,1-.78-.4,1.42,1.42,0,0,1-.33-.94,1.47,1.47,0,0,1,.33-1,1,1,0,0,1,.78-.39,1,1,0,0,1,.78.39A1.52,1.52,0,0,1,249.23,294.44Zm-4.91,17.28h-1.78v-7.37a4.91,4.91,0,0,0-.52-2.61,2.24,2.24,0,0,0-2-.87,2,2,0,0,0-1.7.87,3.47,3.47,0,0,0-.66,2.14v7.84h-1.79V298.87h1.79v.92a3.21,3.21,0,0,1,2.36-1.13q4.31,0,4.31,5.56Zm-11.39,0h-1.77v-.66a3.57,3.57,0,0,1-2.36.89q-4.34,0-4.33-5.67v-7.41h1.79v7.3a5.45,5.45,0,0,0,.52,2.72,2.17,2.17,0,0,0,2,.93,2.29,2.29,0,0,0,1.65-.7,2.45,2.45,0,0,0,.71-1.81v-8.44h1.77ZM216.24,308a3.72,3.72,0,0,1-1.28,3,3.94,3.94,0,0,1-2.72,1q-3.57,0-4.35-3.74l1.79-.4a2.75,2.75,0,0,0,1,1.59,2.72,2.72,0,0,0,1.6.39,2.6,2.6,0,0,0,1.43-.39,1.62,1.62,0,0,0,.75-1.43c0-.83-.53-1.44-1.6-1.82s-2-.7-3-1a3.11,3.11,0,0,1-1.61-2.9,3.39,3.39,0,0,1,1.17-2.75,3.87,3.87,0,0,1,2.52-.81,3.92,3.92,0,0,1,3.89,2.69l-1.62,1a2.3,2.3,0,0,0-2.27-1.48c-1.25,0-1.87.45-1.87,1.37,0,.56.54,1,1.61,1.35a14.63,14.63,0,0,1,3,1.13A3.63,3.63,0,0,1,216.24,308Zm-12.34.79V306a2.08,2.08,0,0,1-.73.13h-1.93a1.72,1.72,0,0,0-1.25.54,1.82,1.82,0,0,0-.55,1.36,1.72,1.72,0,0,0,.56,1.33,1.78,1.78,0,0,0,1.26.52A3.45,3.45,0,0,0,203.9,308.76Zm2.15,2.64-1.71.63-.24-.95a4.69,4.69,0,0,1-2.84.9,3.39,3.39,0,0,1-2.49-1.08,4.32,4.32,0,0,1,0-5.78,3.38,3.38,0,0,1,2.51-1.06H203a1.17,1.17,0,0,0,.86-.29v-1.18a1.57,1.57,0,0,0-.59-1.32,2.15,2.15,0,0,0-1.38-.48,2.26,2.26,0,0,0-2.31,2L198,302q.84-3.37,4-3.37a3.5,3.5,0,0,1,2.53,1,3.77,3.77,0,0,1,1.19,2.9V310ZM195.81,308a3.75,3.75,0,0,1-1.28,3,4,4,0,0,1-2.73,1q-3.57,0-4.35-3.74l1.8-.4a2.69,2.69,0,0,0,.95,1.59,2.74,2.74,0,0,0,1.6.39,2.57,2.57,0,0,0,1.43-.39A1.61,1.61,0,0,0,194,308c0-.83-.53-1.44-1.6-1.82l-3-1a3.11,3.11,0,0,1-1.6-2.9,3.39,3.39,0,0,1,1.17-2.75,3.84,3.84,0,0,1,2.51-.81,3.93,3.93,0,0,1,3.9,2.69l-1.63,1a2.29,2.29,0,0,0-2.27-1.48c-1.24,0-1.86.45-1.86,1.37,0,.56.53,1,1.6,1.35a15.09,15.09,0,0,1,3,1.13A3.65,3.65,0,0,1,195.81,308Zm-12-4c-.08-2.1-.86-3.16-2.33-3.16-1.62,0-2.52,1.06-2.71,3.16Zm1.82.82,0,1.32h-6.9q.12,3.67,3,3.67a3,3,0,0,0,2.6-1.53l1.25,1.5a4.39,4.39,0,0,1-3.85,2.17q-4.76,0-4.76-6.57a9,9,0,0,1,1-4.7,3.84,3.84,0,0,1,3.53-2,3.52,3.52,0,0,1,3.2,1.79A8.38,8.38,0,0,1,185.61,304.8Zm-9.7-5.35-.75,1.87a2.38,2.38,0,0,0-1.37-.47,2.29,2.29,0,0,0-1.6.6,2.31,2.31,0,0,0-.71,1.77v8.5h-1.76V298.87h1.76v.66a3.14,3.14,0,0,1,2.31-.9A2.72,2.72,0,0,1,175.91,299.45Zm-10.45,5.93a8.3,8.3,0,0,0-.43-3.08,2.1,2.1,0,0,0-2.1-1.4,2.19,2.19,0,0,0-1.68.74,2.69,2.69,0,0,0-.68,1.93v3.63a2.63,2.63,0,0,0,.68,1.91,2.24,2.24,0,0,0,1.68.71,2.11,2.11,0,0,0,2.1-1.38A8.11,8.11,0,0,0,165.46,305.38Zm1.77,0c0,4.4-1.43,6.59-4.3,6.59a3.47,3.47,0,0,1-2.36-.73v6.25h-1.8V298.87h1.8v.74a3.27,3.27,0,0,1,2.36-.95Q167.24,298.66,167.23,305.41ZM156,311.72h-1.82v-7.81a4,4,0,0,0-.57-2.22,1.88,1.88,0,0,0-1.66-.87,1.77,1.77,0,0,0-1.56.91,3.94,3.94,0,0,0-.58,2.18v7.81H148v-7.81a4,4,0,0,0-.56-2.22,2,2,0,0,0-1.71-.87,1.77,1.77,0,0,0-1.5.88,3.65,3.65,0,0,0-.6,2.1v7.92h-1.82V298.87h1.82v.74a2.94,2.94,0,0,1,2.1-1,3.54,3.54,0,0,1,3.16,1.87,3.53,3.53,0,0,1,6-.32,6.3,6.3,0,0,1,1.06,3.73Zm-16.78,0h-9.83V293.3h9.83v2.27h-7.94v5.59h6.95v2.11h-6.95v6.18h7.94Z" transform="translate(-129.35 -190.12)"/></svg>