<svg id="b9ac77ff-389f-4305-ab61-ab2d9b2b08cf" data-name="Capa 1" xmlns="http://www.w3.org/2000/svg" xmlns:xlink="http://www.w3.org/1999/xlink" viewBox="0 0 792.1 198.35"><defs><style>.fb49aba9-2aa5-4740-bc79-5e40f8ea35e5{fill:none;}.ad47bfe0-5942-4fa1-8b51-8b59b803f599{clip-path:url(#ff05da79-3a73-4fb5-a708-5118bb423970);}.f9e6f4f1-03bf-4c39-a895-53f04be9e980{fill:#4470b4;}</style><clipPath id="ff05da79-3a73-4fb5-a708-5118bb423970" transform="translate(-27.88 -189.17)"><rect class="fb49aba9-2aa5-4740-bc79-5e40f8ea35e5" width="841.89" height="595.28"/></clipPath></defs><title>logo</title><g class="ad47bfe0-5942-4fa1-8b51-8b59b803f599"><path class="f9e6f4f1-03bf-4c39-a895-53f04be9e980" d="M186,289.84V209.39c0-11.14-8.13-20.22-18.1-20.22H46c-10,0-18.1,9.08-18.1,20.22v80.45C27.88,301,36,310.06,46,310.06h5.17v24.25c0,4.48,3.24,8.1,7.28,8.1a7,7,0,0,0,5.49-2.82L86.79,310h81.13c9.93,0,18.06-9,18.06-20.18M84.5,299.1A4.71,4.71,0,0,0,80.78,301L60.92,326.62V304.56A5.25,5.25,0,0,0,56,299.05H46c-4.56,0-8.29-4.16-8.29-9.26v-80.4c0-5.1,3.73-9.26,8.29-9.26h121.9c4.56,0,8.29,4.16,8.29,9.26v80.45c0,5.1-3.73,9.26-8.29,9.26Z" transform="translate(-27.88 -189.17)"/><path class="f9e6f4f1-03bf-4c39-a895-53f04be9e980" d="M187.94,372.74a6.85,6.85,0,0,0,5.44,2.82A6.55,6.55,0,0,0,196,375a8,8,0,0,0,4.72-7.6V343.17h5.17c10,0,18.1-9.08,18.1-20.22V242.5c0-11.14-8.13-20.22-18.1-20.22a5.51,5.51,0,0,0,0,11c4.56,0,8.29,4.16,8.29,9.26V323c0,5.1-3.73,9.26-8.29,9.26H195.79a5.23,5.23,0,0,0-4.93,5.5v22.06L171,334.13a4.66,4.66,0,0,0-3.73-1.88H93.59a5.54,5.54,0,0,0,0,11H165Z" transform="translate(-27.88 -189.17)"/><path class="f9e6f4f1-03bf-4c39-a895-53f04be9e980" d="M106.93,245c3.23,0,5.85,2.92,5.85,6.53s-2.62,6.53-5.85,6.53-5.85-2.92-5.85-6.53,2.62-6.53,5.85-6.53" transform="translate(-27.88 -189.17)"/><path class="f9e6f4f1-03bf-4c39-a895-53f04be9e980" d="M126.51,245c3.23,0,5.85,2.92,5.85,6.53s-2.62,6.53-5.85,6.53-5.85-2.92-5.85-6.53,2.62-6.53,5.85-6.53" transform="translate(-27.88 -189.17)"/><path class="f9e6f4f1-03bf-4c39-a895-53f04be9e980" d="M87.35,245c3.23,0,5.84,2.92,5.84,6.53s-2.61,6.53-5.84,6.53-5.85-2.92-5.85-6.53S84.12,245,87.35,245" transform="translate(-27.88 -189.17)"/><path class="f9e6f4f1-03bf-4c39-a895-53f04be9e980" d="M247.46,234.83a7,7,0,0,1,7.11-7.05l19.21.08c15.35.07,24.59,9.21,24.53,22.36v.18c-.06,14.89-11.68,22.56-26.11,22.5l-10.76,0-.05,12.78a7.08,7.08,0,0,1-14.16-.07Zm25.25,25.48c7.08,0,11.24-4.18,11.26-9.7v-.18c0-6.34-4.37-9.76-11.44-9.79l-10.94,0-.09,19.67Z" transform="translate(-27.88 -189.17)"/><path class="f9e6f4f1-03bf-4c39-a895-53f04be9e980" d="M299.87,278.18V278c.05-10.76,8.25-15.68,19.92-15.63a35,35,0,0,1,12,2.07v-.82c0-5.8-3.54-9-10.53-9.06a31.82,31.82,0,0,0-9.66,1.34,6,6,0,0,1-2,.36,5.7,5.7,0,0,1-5.77-5.73,5.79,5.79,0,0,1,3.79-5.4,42.78,42.78,0,0,1,15.73-2.51c7.63,0,13.14,2.08,16.62,5.59,3.66,3.69,5.29,9.12,5.26,15.74l-.1,22.43a6.71,6.71,0,0,1-6.83,6.68c-4.05,0-6.7-2.88-6.69-5.82v-.09c-3.41,3.75-8.11,6.21-14.91,6.18-9.29,0-16.89-5.41-16.85-15.15M332,275.11v-2.49a21.59,21.59,0,0,0-8.9-1.87c-6,0-9.67,2.34-9.68,6.75v.19c0,3.77,3.1,6,7.61,6,6.52,0,10.95-3.54,11-8.59" transform="translate(-27.88 -189.17)"/><path class="f9e6f4f1-03bf-4c39-a895-53f04be9e980" d="M351.42,268.22V268a25.28,25.28,0,0,1,25.94-25.53c7.44,0,12.67,2.07,16.79,5.59a6.18,6.18,0,0,1,2.19,4.78,6.29,6.29,0,0,1-6.37,6.23,6.56,6.56,0,0,1-4-1.4,13.28,13.28,0,0,0-8.72-3.16c-7,0-12,6.1-12,13.36v.19c0,7.53,4.82,13.62,12.44,13.66a14.19,14.19,0,0,0,9.21-3.36,6.48,6.48,0,0,1,3.77-1.27,5.93,5.93,0,0,1,3.82,10.4c-4.15,3.75-9.4,6.3-17.49,6.26a25.14,25.14,0,0,1-25.53-25.57" transform="translate(-27.88 -189.17)"/><path class="f9e6f4f1-03bf-4c39-a895-53f04be9e980" d="M406.81,278.86l.1-23.35h-.46a6,6,0,0,1,.06-11.95H407l0-6.15a7,7,0,1,1,14,.06l0,6.16,6.16,0A6,6,0,0,1,427,255.6l-6.15,0-.1,21.05c0,3.22,1.36,4.79,4.49,4.8.45,0,1.38-.08,1.65-.08a5.83,5.83,0,0,1,5.77,5.81,5.71,5.71,0,0,1-3.61,5.23,20.69,20.69,0,0,1-8,1.34c-8.54,0-14.32-3.46-14.27-14.86" transform="translate(-27.88 -189.17)"/><path class="f9e6f4f1-03bf-4c39-a895-53f04be9e980" d="M437.2,268.61v-.18c.07-14.15,11.51-25.59,26.86-25.53s26.52,11.43,26.45,25.58v.19c-.06,14.15-11.51,25.59-26.86,25.52s-26.51-11.42-26.45-25.58m39.53.18v-.18c0-7.27-5.18-13.63-12.9-13.67-8,0-12.81,6.11-12.84,13.37v.18c0,7.26,5.18,13.63,12.9,13.66,8,0,12.8-6.1,12.84-13.36" transform="translate(-27.88 -189.17)"/><path class="f9e6f4f1-03bf-4c39-a895-53f04be9e980" d="M244,364.84l.22-49.44a6.93,6.93,0,0,1,7-6.94l35.13.16a6.26,6.26,0,0,1,6.22,6.27,6.19,6.19,0,0,1-6.28,6.13L258,320.9l-.06,12.86,24.18.1a6.27,6.27,0,0,1,6.22,6.28,6.18,6.18,0,0,1-6.27,6.13l-24.18-.11-.06,13.31,28.71.13a6.26,6.26,0,0,1,6.22,6.27,6.19,6.19,0,0,1-6.28,6.13l-35.59-.15a6.93,6.93,0,0,1-6.94-7" transform="translate(-27.88 -189.17)"/><path class="f9e6f4f1-03bf-4c39-a895-53f04be9e980" d="M296.86,329.88a6.89,6.89,0,0,1,13.77.06v.55c3.19-4.06,7.37-7.76,14.34-7.73,6.34,0,11.13,2.86,13.64,7.76,4.28-5,9.36-7.66,16-7.63,10.24.05,16.37,6.23,16.31,17.91l-.11,25.27A6.88,6.88,0,1,1,357,366l.09-20.73c0-6.52-2.85-9.88-8-9.91s-8.35,3.32-8.38,9.84l-.09,20.73a6.88,6.88,0,1,1-13.76-.06l.09-20.73c0-6.52-2.85-9.89-8-9.91s-8.34,3.32-8.37,9.84l-.09,20.73a6.89,6.89,0,0,1-13.77-.06Z" transform="translate(-27.88 -189.17)"/><path class="f9e6f4f1-03bf-4c39-a895-53f04be9e980" d="M377.71,330.26a6.88,6.88,0,0,1,13.76.06V331c3.37-4.52,8-7.85,15.16-7.82,11.31.05,22.05,9,22,25.18v.19c-.07,16.2-10.71,25-22.2,25a18.61,18.61,0,0,1-15.09-7.31l-.07,14.49a6.88,6.88,0,1,1-13.76-.06Zm37.14,18.18v-.18c0-8.06-5.38-13.42-11.8-13.45s-11.8,5.29-11.84,13.35v.18c0,8.06,5.29,13.42,11.72,13.45s11.88-5.2,11.92-13.35" transform="translate(-27.88 -189.17)"/><path class="f9e6f4f1-03bf-4c39-a895-53f04be9e980" d="M433.66,330.53a6.88,6.88,0,0,1,13.76.06v2.17c2-4.7,5.29-9,9.37-9,4.25,0,6.69,2.84,6.67,6.73a6.35,6.35,0,0,1-5.19,6.41c-7,1.6-10.9,6.92-10.94,16.7l-.06,12.86a6.88,6.88,0,1,1-13.76-.06Z" transform="translate(-27.88 -189.17)"/><path class="f9e6f4f1-03bf-4c39-a895-53f04be9e980" d="M489.08,374.08c-14.58-.07-25.31-10.35-25.25-25.2v-.18c.06-13.85,10-25.22,24.1-25.16,16.21.07,23.31,13.42,23.26,23.47a6.28,6.28,0,0,1-6.46,6.58l-27.25-.12c1.33,6.25,5.66,9.53,11.82,9.56a15.85,15.85,0,0,0,9.79-3.22,5.13,5.13,0,0,1,3.36-1.07,5.26,5.26,0,0,1,5.32,5.46,5.39,5.39,0,0,1-1.83,4.06,25.15,25.15,0,0,1-16.87,5.82m9-29.12c-.79-6.16-4.39-10.34-10.19-10.37s-9.43,4-10.54,10.28Z" transform="translate(-27.88 -189.17)"/><path class="f9e6f4f1-03bf-4c39-a895-53f04be9e980" d="M516.6,330.94a6.89,6.89,0,1,1,13.77.06v.54c3.19-4.06,7.28-7.75,14.25-7.72,10.42,0,16.45,6.95,16.4,18.09L560.9,367a6.88,6.88,0,1,1-13.76-.06l.09-20.74c0-6.52-3-9.88-8.28-9.9s-8.62,3.31-8.65,9.83l-.09,20.73a6.89,6.89,0,1,1-13.77-.06Z" transform="translate(-27.88 -189.17)"/><path class="f9e6f4f1-03bf-4c39-a895-53f04be9e980" d="M617.78,367.26A6.88,6.88,0,1,1,604,367.2v-.64c-3.37,4.51-8,7.85-15.16,7.81-11.32-.05-22.05-9-22-25.17V349c.07-16.2,10.7-25,22.2-25a18.61,18.61,0,0,1,15.09,7.31l.08-17.57a6.89,6.89,0,0,1,13.77.06Zm-37.14-18.18v.18c0,8.05,5.38,13.42,11.81,13.45s11.79-5.29,11.83-13.35v-.18c0-8.06-5.29-13.43-11.72-13.45s-11.88,5.2-11.92,13.35" transform="translate(-27.88 -189.17)"/><path class="f9e6f4f1-03bf-4c39-a895-53f04be9e980" d="M649.18,374.84c-14.58-.07-25.31-10.34-25.24-25.19v-.18c.06-13.86,10-25.23,24.1-25.16,16.21.07,23.31,13.41,23.26,23.46a6.26,6.26,0,0,1-6.46,6.58l-27.25-.12c1.33,6.26,5.66,9.54,11.82,9.56a15.84,15.84,0,0,0,9.79-3.21,5.19,5.19,0,0,1,3.36-1.08,5.26,5.26,0,0,1,5.31,5.46,5.38,5.38,0,0,1-1.82,4.07,25.18,25.18,0,0,1-16.87,5.81m9-29.12c-.78-6.16-4.39-10.34-10.18-10.37s-9.44,4-10.55,10.28Z" transform="translate(-27.88 -189.17)"/><path class="f9e6f4f1-03bf-4c39-a895-53f04be9e980" d="M726.65,367.77a6.89,6.89,0,0,1-13.77-.06v-.63c-3.38,4.51-8,7.84-15.16,7.81-11.32-.05-22.06-9-22-25.18v-.18c.07-16.21,10.7-25,22.2-25A18.69,18.69,0,0,1,713,331.85l.08-17.56a6.88,6.88,0,1,1,13.76.06Zm-37.14-18.18v.18c0,8.06,5.37,13.42,11.8,13.45s11.8-5.29,11.83-13.35v-.18c0-8.05-5.28-13.42-11.71-13.45s-11.89,5.2-11.92,13.35" transform="translate(-27.88 -189.17)"/><path class="f9e6f4f1-03bf-4c39-a895-53f04be9e980" d="M732.8,350.16V350c.06-14,11.34-25.21,26.46-25.15s26.12,11.25,26.06,25.2v.18c-.06,13.94-11.34,25.21-26.46,25.15s-26.12-11.26-26.06-25.2m38.94.17v-.18c0-7.15-5.1-13.42-12.71-13.46-7.88,0-12.61,6-12.64,13.17V350c0,7.15,5.1,13.42,12.7,13.46,7.88,0,12.62-6,12.65-13.17" transform="translate(-27.88 -189.17)"/><path class="f9e6f4f1-03bf-4c39-a895-53f04be9e980" d="M790.19,332.24a6.88,6.88,0,1,1,13.76.06v2.17c2-4.7,5.29-9,9.37-9,4.25,0,6.69,2.84,6.67,6.73a6.33,6.33,0,0,1-5.19,6.41c-7,1.6-10.9,6.92-10.94,16.7l-.06,12.86a6.88,6.88,0,0,1-13.76-.06Z" transform="translate(-27.88 -189.17)"/></g></svg>